# xmcd CD database file
#
# Track frame offsets:
#	150
#	12502
#	37681
#	53732
#	67315
#	81849
#	95947
#	113904
#	129609
#	150624
#	160910
#	189862
#	203771
#	220186
#	246844
#
# Disc length: 3786 seconds
#
# Revision: 0
# Processed by: cddbd v1.5.1PL0 Copyright (c) Steve Scherf et al.
# Submitted via: CDex 1.51
#
DISCID=ce0ec80f
DTITLE=Fathers and Sons (von LP) - Blues and Rock Project
DYEAR=1992
DGENRE=Blues
TTITLE0=All aboard
TTITLE1=Mean disposition
TTITLE2=Blow wind blow
TTITLE3=Can't lose what you ain't never had
TTITLE4=Walkin' thru the park
TTITLE5=Forty days and forty nights
TTITLE6=Standin' round cryin'
TTITLE7=I'm ready
TTITLE8=Twenty four hours
TTITLE9=Sugar sweet
TTITLE10=Long Distance Call
TTITLE11=Baby please don't go
TTITLE12=Honey bee
TTITLE13=The same thing
TTITLE14=Got my mojo working
EXTD=YEAR: 1992
EXTT0=
EXTT1=
EXTT2=
EXTT3=
EXTT4=
EXTT5=
EXTT6=
EXTT7=
EXTT8=
EXTT9=
EXTT10=
EXTT11=
EXTT12=
EXTT13=
EXTT14=
PLAYORDER=
